<svg width="175" height="51" viewBox="0 0 175 51" fill="none" xmlns="http://www.w3.org/2000/svg">
<path d="M3.28 33V5H12.72V25.68H25.36V33H3.28ZM42.2569 33.64C39.9902 33.64 37.8835 33.28 35.9369 32.56C34.0169 31.84 32.3502 30.8267 30.9369 29.52C29.5235 28.1867 28.4169 26.6267 27.6169 24.84C26.8435 23.0533 26.4569 21.1067 26.4569 19C26.4569 16.8667 26.8435 14.92 27.6169 13.16C28.4169 11.3733 29.5235 9.82667 30.9369 8.52C32.3502 7.18666 34.0169 6.16 35.9369 5.44C37.8835 4.72 39.9902 4.36 42.2569 4.36C44.5502 4.36 46.6569 4.72 48.5769 5.44C50.4969 6.16 52.1635 7.18666 53.5769 8.52C54.9902 9.82667 56.0835 11.3733 56.8569 13.16C57.6569 14.92 58.0569 16.8667 58.0569 19C58.0569 21.1067 57.6569 23.0533 56.8569 24.84C56.0835 26.6267 54.9902 28.1867 53.5769 29.52C52.1635 30.8267 50.4969 31.84 48.5769 32.56C46.6569 33.28 44.5502 33.64 42.2569 33.64ZM42.2569 26C43.1369 26 43.9502 25.84 44.6969 25.52C45.4702 25.2 46.1369 24.7467 46.6969 24.16C47.2835 23.5467 47.7369 22.8133 48.0569 21.96C48.3769 21.08 48.5369 20.0933 48.5369 19C48.5369 17.9067 48.3769 16.9333 48.0569 16.08C47.7369 15.2 47.2835 14.4667 46.6969 13.88C46.1369 13.2667 45.4702 12.8 44.6969 12.48C43.9502 12.16 43.1369 12 42.2569 12C41.3769 12 40.5502 12.16 39.7769 12.48C39.0302 12.8 38.3635 13.2667 37.7769 13.88C37.2169 14.4667 36.7769 15.2 36.4569 16.08C36.1369 16.9333 35.9769 17.9067 35.9769 19C35.9769 20.0933 36.1369 21.08 36.4569 21.96C36.7769 22.8133 37.2169 23.5467 37.7769 24.16C38.3635 24.7467 39.0302 25.2 39.7769 25.52C40.5502 25.84 41.3769 26 42.2569 26ZM61.4831 33V5H74.9631C77.5765 5 79.8298 5.42666 81.7231 6.28C83.6431 7.13333 85.1231 8.36 86.1631 9.96C87.2031 11.5333 87.7231 13.4 87.7231 15.56C87.7231 17.72 87.2031 19.5867 86.1631 21.16C85.1231 22.7333 83.6431 23.96 81.7231 24.84C79.8298 25.6933 77.5765 26.12 74.9631 26.12H66.7231L70.9231 22.08V33H61.4831ZM70.9231 23.12L66.7231 18.84H74.3631C75.6698 18.84 76.6298 18.5467 77.2431 17.96C77.8831 17.3733 78.2031 16.5733 78.2031 15.56C78.2031 14.5467 77.8831 13.7467 77.2431 13.16C76.6298 12.5733 75.6698 12.28 74.3631 12.28H66.7231L70.9231 8V23.12ZM99.4591 15.4H111.939V22.2H99.4591V15.4ZM100.099 25.88H114.099V33H90.8191V5H113.579V12.12H100.099V25.88ZM128.173 33.64C125.826 33.64 123.56 33.3733 121.373 32.84C119.186 32.3067 117.386 31.6133 115.973 30.76L119.013 23.88C120.346 24.6533 121.826 25.28 123.453 25.76C125.106 26.2133 126.706 26.44 128.253 26.44C129.16 26.44 129.866 26.3867 130.373 26.28C130.906 26.1467 131.293 25.9733 131.533 25.76C131.773 25.52 131.893 25.24 131.893 24.92C131.893 24.4133 131.613 24.0133 131.053 23.72C130.493 23.4267 129.746 23.1867 128.813 23C127.906 22.7867 126.906 22.5733 125.813 22.36C124.72 22.12 123.613 21.8133 122.493 21.44C121.4 21.0667 120.386 20.5733 119.453 19.96C118.546 19.3467 117.813 18.5467 117.253 17.56C116.693 16.5467 116.413 15.2933 116.413 13.8C116.413 12.0667 116.893 10.4933 117.853 9.08C118.84 7.64 120.293 6.49333 122.213 5.64C124.16 4.78667 126.573 4.36 129.453 4.36C131.346 4.36 133.213 4.56 135.053 4.96C136.893 5.36 138.546 5.97333 140.013 6.8L137.173 13.64C135.786 12.9467 134.44 12.4267 133.133 12.08C131.853 11.7333 130.6 11.56 129.373 11.56C128.466 11.56 127.746 11.64 127.213 11.8C126.68 11.96 126.293 12.1733 126.053 12.44C125.84 12.7067 125.733 13 125.733 13.32C125.733 13.8 126.013 14.1867 126.573 14.48C127.133 14.7467 127.866 14.9733 128.773 15.16C129.706 15.3467 130.72 15.5467 131.813 15.76C132.933 15.9733 134.04 16.2667 135.133 16.64C136.226 17.0133 137.226 17.5067 138.133 18.12C139.066 18.7333 139.813 19.5333 140.373 20.52C140.933 21.5067 141.213 22.7333 141.213 24.2C141.213 25.9067 140.72 27.48 139.733 28.92C138.773 30.3333 137.333 31.48 135.413 32.36C133.493 33.2133 131.08 33.64 128.173 33.64Z" fill="white"/>
<path d="M91.2642 50V35.4545H97.0028C98.1061 35.4545 99.0459 35.6652 99.8224 36.0866C100.599 36.5033 101.191 37.0833 101.598 37.8267C102.01 38.5653 102.216 39.4176 102.216 40.3835C102.216 41.3494 102.008 42.2017 101.591 42.9403C101.174 43.679 100.571 44.2543 99.7798 44.6662C98.9938 45.0781 98.0421 45.2841 96.9247 45.2841H93.267V42.8196H96.4276C97.0194 42.8196 97.5071 42.7178 97.8906 42.5142C98.2789 42.3059 98.5677 42.0194 98.7571 41.6548C98.9512 41.2855 99.0483 40.8617 99.0483 40.3835C99.0483 39.9006 98.9512 39.4792 98.7571 39.1193C98.5677 38.7547 98.2789 38.473 97.8906 38.2741C97.5024 38.0705 97.0099 37.9688 96.4134 37.9688H94.3395V50H91.2642ZM108.952 50.2131C107.83 50.2131 106.864 49.9858 106.055 49.5312C105.25 49.072 104.629 48.4233 104.194 47.5852C103.758 46.7424 103.54 45.7457 103.54 44.5952C103.54 43.473 103.758 42.4882 104.194 41.6406C104.629 40.7931 105.243 40.1326 106.033 39.6591C106.829 39.1856 107.762 38.9489 108.832 38.9489C109.551 38.9489 110.221 39.0649 110.842 39.2969C111.467 39.5241 112.011 39.8674 112.475 40.3267C112.944 40.786 113.308 41.3636 113.569 42.0597C113.829 42.7509 113.96 43.5606 113.96 44.4886V45.3196H104.748V43.4446H111.112C111.112 43.009 111.017 42.6231 110.827 42.2869C110.638 41.9508 110.375 41.688 110.039 41.4986C109.708 41.3045 109.322 41.2074 108.881 41.2074C108.422 41.2074 108.015 41.3139 107.66 41.527C107.309 41.7353 107.035 42.017 106.836 42.3722C106.637 42.7225 106.535 43.1132 106.531 43.544V45.3267C106.531 45.8665 106.63 46.3329 106.829 46.7259C107.032 47.1188 107.319 47.4219 107.688 47.6349C108.058 47.848 108.496 47.9545 109.002 47.9545C109.338 47.9545 109.646 47.9072 109.925 47.8125C110.205 47.7178 110.444 47.5758 110.643 47.3864C110.842 47.197 110.993 46.965 111.097 46.6903L113.896 46.875C113.754 47.5473 113.462 48.1345 113.022 48.6364C112.586 49.1335 112.023 49.5218 111.332 49.8011C110.645 50.0758 109.852 50.2131 108.952 50.2131ZM115.934 50V39.0909H118.96V50H115.934ZM117.454 37.6847C117.004 37.6847 116.618 37.5355 116.296 37.2372C115.979 36.9342 115.82 36.572 115.82 36.1506C115.82 35.7339 115.979 35.3764 116.296 35.0781C116.618 34.7751 117.004 34.6236 117.454 34.6236C117.904 34.6236 118.287 34.7751 118.604 35.0781C118.926 35.3764 119.087 35.7339 119.087 36.1506C119.087 36.572 118.926 36.9342 118.604 37.2372C118.287 37.5355 117.904 37.6847 117.454 37.6847ZM124.409 43.6932V50H121.383V39.0909H124.267V41.0156H124.395C124.636 40.3812 125.041 39.8793 125.609 39.5099C126.177 39.1359 126.866 38.9489 127.676 38.9489C128.433 38.9489 129.094 39.1146 129.657 39.446C130.221 39.7775 130.659 40.2509 130.971 40.8665C131.284 41.4773 131.44 42.2064 131.44 43.054V50H128.414V43.5938C128.419 42.9261 128.249 42.4053 127.903 42.0312C127.557 41.6525 127.082 41.4631 126.475 41.4631C126.068 41.4631 125.708 41.5507 125.396 41.7259C125.088 41.901 124.847 42.1567 124.672 42.4929C124.501 42.8243 124.413 43.2244 124.409 43.6932ZM139.627 39.0909V41.3636H133.058V39.0909H139.627ZM134.549 36.4773H137.575V46.6477C137.575 46.9271 137.617 47.1449 137.702 47.3011C137.788 47.4527 137.906 47.5592 138.058 47.6207C138.214 47.6823 138.394 47.7131 138.597 47.7131C138.739 47.7131 138.881 47.7012 139.023 47.6776C139.165 47.6491 139.274 47.6278 139.35 47.6136L139.826 49.8651C139.674 49.9124 139.461 49.9669 139.187 50.0284C138.912 50.0947 138.578 50.1349 138.185 50.1491C137.456 50.1776 136.817 50.0805 136.268 49.858C135.723 49.6354 135.299 49.2898 134.996 48.821C134.693 48.3523 134.544 47.7604 134.549 47.0455V36.4773ZM148.594 45.3551V39.0909H151.619V50H148.714V48.0185H148.601C148.355 48.6577 147.945 49.1714 147.372 49.5597C146.804 49.9479 146.11 50.142 145.291 50.142C144.562 50.142 143.92 49.9763 143.366 49.6449C142.813 49.3134 142.379 48.8423 142.067 48.2315C141.759 47.6207 141.603 46.8892 141.598 46.0369V39.0909H144.624V45.4972C144.628 46.1411 144.801 46.6501 145.142 47.0241C145.483 47.3982 145.94 47.5852 146.513 47.5852C146.877 47.5852 147.218 47.5024 147.536 47.3366C147.853 47.1662 148.108 46.9152 148.303 46.5838C148.501 46.2524 148.598 45.8428 148.594 45.3551ZM154.039 50V39.0909H156.973V40.9943H157.086C157.285 40.3172 157.619 39.8059 158.088 39.4602C158.556 39.1098 159.096 38.9347 159.707 38.9347C159.859 38.9347 160.022 38.9441 160.197 38.9631C160.372 38.982 160.526 39.008 160.659 39.0412V41.7259C160.517 41.6832 160.32 41.6454 160.069 41.6122C159.818 41.5791 159.589 41.5625 159.38 41.5625C158.935 41.5625 158.538 41.6596 158.187 41.8537C157.842 42.0431 157.567 42.3082 157.363 42.6491C157.164 42.9901 157.065 43.383 157.065 43.8281V50H154.039ZM166.687 50.2131C165.565 50.2131 164.599 49.9858 163.789 49.5312C162.984 49.072 162.364 48.4233 161.928 47.5852C161.493 46.7424 161.275 45.7457 161.275 44.5952C161.275 43.473 161.493 42.4882 161.928 41.6406C162.364 40.7931 162.977 40.1326 163.768 39.6591C164.563 39.1856 165.496 38.9489 166.566 38.9489C167.286 38.9489 167.956 39.0649 168.576 39.2969C169.201 39.5241 169.746 39.8674 170.21 40.3267C170.678 40.786 171.043 41.3636 171.303 42.0597C171.564 42.7509 171.694 43.5606 171.694 44.4886V45.3196H162.482V43.4446H168.846C168.846 43.009 168.751 42.6231 168.562 42.2869C168.372 41.9508 168.11 41.688 167.773 41.4986C167.442 41.3045 167.056 41.2074 166.616 41.2074C166.156 41.2074 165.749 41.3139 165.394 41.527C165.044 41.7353 164.769 42.017 164.57 42.3722C164.371 42.7225 164.27 43.1132 164.265 43.544V45.3267C164.265 45.8665 164.364 46.3329 164.563 46.7259C164.767 47.1188 165.053 47.4219 165.423 47.6349C165.792 47.848 166.23 47.9545 166.737 47.9545C167.073 47.9545 167.38 47.9072 167.66 47.8125C167.939 47.7178 168.178 47.5758 168.377 47.3864C168.576 47.197 168.728 46.965 168.832 46.6903L171.63 46.875C171.488 47.5473 171.197 48.1345 170.756 48.6364C170.321 49.1335 169.757 49.5218 169.066 49.8011C168.379 50.0758 167.586 50.2131 166.687 50.2131Z" fill="white"/>
<path d="M146.662 34.8846C146.76 34.9416 146.965 34.9699 147.342 34.7741C147.718 34.5782 148.21 34.1685 148.751 33.526L148.756 33.5201L148.762 33.5144C151.404 30.5932 152.034 26.546 153.882 22.6361C153.998 22.3909 154.212 22.2603 154.415 22.1919C154.619 22.1235 154.833 22.1034 155.067 22.1039C155.533 22.1049 156.079 22.1971 156.659 22.3401C157.637 22.5809 158.681 22.9656 159.5 23.3778L159.836 22.668L148.238 15.8996L147.902 16.6094C148.673 17.1252 149.551 17.8622 150.284 18.6195C150.719 19.0693 151.097 19.516 151.363 19.9425C151.496 20.1557 151.603 20.3635 151.667 20.5884C151.732 20.8134 151.757 21.0827 151.641 21.3279C149.881 25.0509 147.239 27.5049 146.487 32.1854L146.485 32.194L146.484 32.2024C146.315 33.0627 146.29 33.7453 146.359 34.2005C146.427 34.6558 146.565 34.8277 146.662 34.8846ZM147.567 32.9714C147.464 32.9116 147.382 32.8119 147.325 32.6778C147.268 32.5437 147.236 32.3779 147.233 32.1898C147.229 32.0018 147.254 31.7952 147.305 31.5819C147.355 31.3685 147.432 31.1526 147.529 30.9464C147.627 30.7403 147.743 30.5479 147.873 30.3803C148.002 30.2127 148.141 30.0731 148.282 29.9696C148.424 29.8661 148.564 29.8006 148.696 29.777C148.828 29.7533 148.949 29.7719 149.051 29.8316C149.258 29.9523 149.378 30.2334 149.385 30.6132C149.392 30.9929 149.285 31.4401 149.089 31.8565C148.991 32.0627 148.875 32.255 148.745 32.4226C148.616 32.5903 148.477 32.7298 148.336 32.8333C148.194 32.9369 148.054 33.0024 147.922 33.0261C147.79 33.0498 147.669 33.0311 147.567 32.9714ZM160.253 21.7849L160.578 21.0981L148.98 14.3297L148.655 15.0166L160.253 21.7849ZM160.996 20.215L161.32 19.5281L149.722 12.7598L149.397 13.4466L160.996 20.215ZM161.744 18.649C162.463 17.1414 163.714 14.6988 165.893 13.1832L164.587 12.4215C164.01 12.5712 163.484 12.7437 163.005 12.9379C163.145 12.584 163.404 12.2212 163.676 11.8897L161.899 10.8522C161.515 11.2368 161.226 11.6928 160.897 12.1185C161.004 11.5637 161.097 11.0014 161.268 10.4842L158.467 8.84945C158.465 9.25065 158.379 9.6513 158.261 10.0518C158.165 9.48984 157.946 8.93616 157.673 8.38606L155.904 7.35406C155.444 7.70253 155.011 8.06666 154.678 8.48876C154.594 7.8365 154.749 7.30419 154.932 6.78665L153.562 5.98711C153.485 6.22255 153.348 6.42961 153.01 6.69205C153.076 6.27356 152.974 5.90933 152.817 5.55219L151.829 4.97563C151.942 7.82892 150.842 10.3594 150.133 11.8728L161.744 18.649Z" fill="#80B14F"/>
</svg>
