<svg width="206" height="60" viewBox="0 0 206 60" fill="none" xmlns="http://www.w3.org/2000/svg">
<path d="M2.736 38V4.4H14.064V29.216H29.232V38H2.736ZM49.5083 38.768C46.7883 38.768 44.2603 38.336 41.9243 37.472C39.6203 36.608 37.6203 35.392 35.9243 33.824C34.2283 32.224 32.9003 30.352 31.9403 28.208C31.0123 26.064 30.5483 23.728 30.5483 21.2C30.5483 18.64 31.0123 16.304 31.9403 14.192C32.9003 12.048 34.2283 10.192 35.9243 8.624C37.6203 7.024 39.6203 5.792 41.9243 4.928C44.2603 4.064 46.7883 3.632 49.5083 3.632C52.2603 3.632 54.7883 4.064 57.0923 4.928C59.3963 5.792 61.3963 7.024 63.0923 8.624C64.7883 10.192 66.1003 12.048 67.0283 14.192C67.9883 16.304 68.4683 18.64 68.4683 21.2C68.4683 23.728 67.9883 26.064 67.0283 28.208C66.1003 30.352 64.7883 32.224 63.0923 33.824C61.3963 35.392 59.3963 36.608 57.0923 37.472C54.7883 38.336 52.2603 38.768 49.5083 38.768ZM49.5083 29.6C50.5643 29.6 51.5403 29.408 52.4363 29.024C53.3643 28.64 54.1643 28.096 54.8363 27.392C55.5403 26.656 56.0843 25.776 56.4683 24.752C56.8523 23.696 57.0443 22.512 57.0443 21.2C57.0443 19.888 56.8523 18.72 56.4683 17.696C56.0843 16.64 55.5403 15.76 54.8363 15.056C54.1643 14.32 53.3643 13.76 52.4363 13.376C51.5403 12.992 50.5643 12.8 49.5083 12.8C48.4523 12.8 47.4603 12.992 46.5323 13.376C45.6363 13.76 44.8363 14.32 44.1323 15.056C43.4603 15.76 42.9323 16.64 42.5483 17.696C42.1643 18.72 41.9723 19.888 41.9723 21.2C41.9723 22.512 42.1643 23.696 42.5483 24.752C42.9323 25.776 43.4603 26.656 44.1323 27.392C44.8363 28.096 45.6363 28.64 46.5323 29.024C47.4603 29.408 48.4523 29.6 49.5083 29.6ZM72.5798 38V4.4H88.7558C91.8918 4.4 94.5958 4.912 96.8678 5.936C99.1718 6.96 100.948 8.432 102.196 10.352C103.444 12.24 104.068 14.48 104.068 17.072C104.068 19.664 103.444 21.904 102.196 23.792C100.948 25.68 99.1718 27.152 96.8678 28.208C94.5958 29.232 91.8918 29.744 88.7558 29.744H78.8678L83.9078 24.896V38H72.5798ZM83.9078 26.144L78.8678 21.008H88.0358C89.6038 21.008 90.7558 20.656 91.4918 19.952C92.2598 19.248 92.6438 18.288 92.6438 17.072C92.6438 15.856 92.2598 14.896 91.4918 14.192C90.7558 13.488 89.6038 13.136 88.0358 13.136H78.8678L83.9078 8V26.144ZM118.151 16.88H133.127V25.04H118.151V16.88ZM118.919 29.456H135.719V38H107.783V4.4H135.095V12.944H118.919V29.456ZM152.608 38.768C149.792 38.768 147.072 38.448 144.448 37.808C141.824 37.168 139.664 36.336 137.968 35.312L141.616 27.056C143.216 27.984 144.992 28.736 146.944 29.312C148.928 29.856 150.848 30.128 152.704 30.128C153.792 30.128 154.64 30.064 155.248 29.936C155.888 29.776 156.352 29.568 156.64 29.312C156.928 29.024 157.072 28.688 157.072 28.304C157.072 27.696 156.736 27.216 156.064 26.864C155.392 26.512 154.496 26.224 153.376 26C152.288 25.744 151.088 25.488 149.776 25.232C148.464 24.944 147.136 24.576 145.792 24.128C144.48 23.68 143.264 23.088 142.144 22.352C141.056 21.616 140.176 20.656 139.504 19.472C138.832 18.256 138.496 16.752 138.496 14.96C138.496 12.88 139.072 10.992 140.224 9.296C141.408 7.568 143.152 6.192 145.456 5.168C147.792 4.144 150.688 3.632 154.144 3.632C156.416 3.632 158.656 3.872 160.864 4.352C163.072 4.832 165.056 5.568 166.816 6.56L163.408 14.768C161.744 13.936 160.128 13.312 158.56 12.896C157.024 12.48 155.52 12.272 154.048 12.272C152.96 12.272 152.096 12.368 151.456 12.56C150.816 12.752 150.352 13.008 150.064 13.328C149.808 13.648 149.68 14 149.68 14.384C149.68 14.96 150.016 15.424 150.688 15.776C151.36 16.096 152.24 16.368 153.328 16.592C154.448 16.816 155.664 17.056 156.976 17.312C158.32 17.568 159.648 17.92 160.96 18.368C162.272 18.816 163.472 19.408 164.56 20.144C165.68 20.88 166.576 21.84 167.248 23.024C167.92 24.208 168.256 25.68 168.256 27.44C168.256 29.488 167.664 31.376 166.48 33.104C165.328 34.8 163.6 36.176 161.296 37.232C158.992 38.256 156.096 38.768 152.608 38.768Z" fill="white"/>
<path d="M172.257 38.2019C172.366 38.2595 172.602 38.2774 173.05 38.0305C173.498 37.7835 174.094 37.287 174.764 36.5243L174.771 36.5173L174.777 36.5105C178.03 33.0304 179.032 28.4168 181.434 23.8747C181.585 23.5898 181.84 23.4277 182.08 23.3365C182.32 23.2453 182.57 23.2079 182.839 23.1925C183.379 23.1616 184.003 23.2282 184.665 23.3499C185.778 23.5547 186.96 23.9176 187.879 24.3268L188.315 23.5022L175.365 16.6547L174.929 17.4793C175.785 18.0089 176.75 18.781 177.546 19.5859C178.019 20.0639 178.426 20.5424 178.704 21.0058C178.843 21.2374 178.953 21.4647 179.012 21.7143C179.072 21.9639 179.082 22.2664 178.931 22.5513C176.644 26.8762 173.423 29.8287 172.237 35.1658L172.235 35.1757L172.232 35.1853C171.979 36.1683 171.904 36.9408 171.953 37.4502C172.001 37.9596 172.148 38.1443 172.257 38.2019ZM173.432 35.9793C173.318 35.9188 173.23 35.8118 173.173 35.6643C173.115 35.5168 173.09 35.3317 173.099 35.1196C173.108 34.9075 173.15 34.6725 173.223 34.4281C173.297 34.1837 173.399 33.9346 173.526 33.6951C173.653 33.4556 173.801 33.2304 173.961 33.0323C174.122 32.8341 174.293 32.667 174.463 32.5404C174.633 32.4138 174.8 32.3302 174.954 32.2944C175.109 32.2587 175.247 32.2714 175.361 32.3318C175.592 32.4539 175.712 32.7631 175.694 33.1915C175.677 33.6198 175.523 34.1322 175.267 34.6158C175.141 34.8553 174.993 35.0806 174.832 35.2787C174.671 35.4769 174.501 35.644 174.33 35.7706C174.16 35.8973 173.993 35.9809 173.839 36.0167C173.685 36.0525 173.547 36.0397 173.432 35.9793ZM188.858 22.4763L189.28 21.6784L176.329 14.831L175.907 15.6289L188.858 22.4763ZM189.822 20.6526L190.244 19.8546L177.294 13.0073L176.872 13.8051L189.822 20.6526ZM190.794 18.8328C191.727 17.0809 193.339 14.2369 195.96 12.3758L194.503 11.6052C193.825 11.8139 193.205 12.0448 192.639 12.2969C192.824 11.8877 193.148 11.4603 193.485 11.0672L191.5 10.0176C191.031 10.4782 190.666 11.013 190.257 11.5162C190.417 10.8825 190.564 10.2411 190.796 9.64526L187.668 7.99145C187.639 8.44462 187.512 8.90296 187.35 9.36328C187.276 8.7353 187.06 8.1251 186.781 7.52264L184.807 6.47858C184.252 6.90365 183.726 7.34456 183.312 7.84412C183.26 7.11325 183.474 6.50156 183.721 5.90455L182.192 5.09568C182.087 5.36678 181.914 5.61004 181.506 5.92958C181.611 5.45247 181.517 5.04818 181.359 4.65568L180.256 4.07237C180.194 7.28669 178.751 10.2198 177.829 11.9774L190.794 18.8328Z" fill="#80B14F"/>
<path d="M108.517 59V41.5455H115.403C116.727 41.5455 117.855 41.7983 118.787 42.304C119.719 42.804 120.429 43.5 120.918 44.392C121.412 45.2784 121.659 46.3011 121.659 47.4602C121.659 48.6193 121.409 49.642 120.909 50.5284C120.409 51.4148 119.685 52.1051 118.736 52.5994C117.793 53.0937 116.651 53.3409 115.31 53.3409H110.92V50.3835H114.713C115.423 50.3835 116.009 50.2614 116.469 50.017C116.935 49.767 117.281 49.4233 117.509 48.9858C117.741 48.5426 117.858 48.0341 117.858 47.4602C117.858 46.8807 117.741 46.375 117.509 45.9432C117.281 45.5057 116.935 45.1676 116.469 44.929C116.003 44.6847 115.412 44.5625 114.696 44.5625H112.207V59H108.517ZM129.743 59.2557C128.396 59.2557 127.237 58.983 126.266 58.4375C125.3 57.8864 124.555 57.108 124.033 56.1023C123.51 55.0909 123.249 53.8949 123.249 52.5142C123.249 51.1676 123.51 49.9858 124.033 48.9688C124.555 47.9517 125.291 47.1591 126.24 46.5909C127.195 46.0227 128.314 45.7386 129.598 45.7386C130.462 45.7386 131.266 45.8778 132.01 46.1562C132.76 46.429 133.413 46.8409 133.97 47.392C134.533 47.9432 134.97 48.6364 135.283 49.4716C135.595 50.3011 135.751 51.2727 135.751 52.3864V53.3835H124.697V51.1335H132.334C132.334 50.6108 132.22 50.1477 131.993 49.7443C131.766 49.3409 131.45 49.0256 131.047 48.7983C130.649 48.5653 130.186 48.4489 129.658 48.4489C129.107 48.4489 128.618 48.5767 128.192 48.8324C127.771 49.0824 127.442 49.4205 127.203 49.8466C126.964 50.267 126.842 50.7358 126.837 51.2528V53.392C126.837 54.0398 126.956 54.5994 127.195 55.071C127.439 55.5426 127.783 55.9062 128.226 56.1619C128.669 56.4176 129.195 56.5455 129.803 56.5455C130.206 56.5455 130.575 56.4886 130.911 56.375C131.246 56.2614 131.533 56.0909 131.771 55.8636C132.01 55.6364 132.192 55.358 132.317 55.0284L135.675 55.25C135.504 56.0568 135.155 56.7614 134.626 57.3636C134.104 57.9602 133.428 58.4261 132.598 58.7614C131.774 59.0909 130.822 59.2557 129.743 59.2557ZM138.121 59V45.9091H141.751V59H138.121ZM139.945 44.2216C139.405 44.2216 138.942 44.0426 138.555 43.6847C138.175 43.321 137.984 42.8864 137.984 42.3807C137.984 41.8807 138.175 41.4517 138.555 41.0938C138.942 40.7301 139.405 40.5483 139.945 40.5483C140.484 40.5483 140.945 40.7301 141.325 41.0938C141.712 41.4517 141.905 41.8807 141.905 42.3807C141.905 42.8864 141.712 43.321 141.325 43.6847C140.945 44.0426 140.484 44.2216 139.945 44.2216ZM148.29 51.4318V59H144.66V45.9091H148.12V48.2188H148.273C148.563 47.4574 149.049 46.8551 149.731 46.4119C150.413 45.9631 151.239 45.7386 152.211 45.7386C153.12 45.7386 153.913 45.9375 154.589 46.3352C155.265 46.733 155.79 47.3011 156.165 48.0398C156.54 48.7727 156.728 49.6477 156.728 50.6648V59H153.097V51.3125C153.103 50.5114 152.898 49.8864 152.484 49.4375C152.069 48.983 151.498 48.7557 150.771 48.7557C150.282 48.7557 149.85 48.8608 149.475 49.071C149.106 49.2812 148.816 49.5881 148.606 49.9915C148.401 50.3892 148.296 50.8693 148.29 51.4318ZM166.553 45.9091V48.6364H158.669V45.9091H166.553ZM160.459 42.7727H164.089V54.9773C164.089 55.3125 164.141 55.5739 164.243 55.7614C164.345 55.9432 164.487 56.071 164.669 56.1449C164.857 56.2187 165.072 56.2557 165.317 56.2557C165.487 56.2557 165.658 56.2415 165.828 56.2131C165.999 56.179 166.129 56.1534 166.22 56.1364L166.791 58.8381C166.609 58.8949 166.354 58.9602 166.024 59.0341C165.695 59.1136 165.294 59.1619 164.822 59.179C163.947 59.2131 163.18 59.0966 162.521 58.8295C161.868 58.5625 161.359 58.1477 160.996 57.5852C160.632 57.0227 160.453 56.3125 160.459 55.4545V42.7727ZM177.312 53.4261V45.9091H180.943V59H177.457V56.6222H177.321C177.026 57.3892 176.534 58.0057 175.847 58.4716C175.165 58.9375 174.332 59.1705 173.349 59.1705C172.474 59.1705 171.705 58.9716 171.04 58.5739C170.375 58.1761 169.855 57.6108 169.48 56.8778C169.111 56.1449 168.923 55.267 168.918 54.2443V45.9091H172.548V53.5966C172.554 54.3693 172.761 54.9801 173.17 55.429C173.58 55.8778 174.128 56.1023 174.815 56.1023C175.253 56.1023 175.662 56.0028 176.043 55.804C176.423 55.5994 176.73 55.2983 176.963 54.9006C177.202 54.5028 177.318 54.0114 177.312 53.4261ZM183.847 59V45.9091H187.367V48.1932H187.504C187.742 47.3807 188.143 46.767 188.705 46.3523C189.268 45.9318 189.915 45.7216 190.648 45.7216C190.83 45.7216 191.026 45.733 191.237 45.7557C191.447 45.7784 191.631 45.8097 191.79 45.8494V49.071C191.62 49.0199 191.384 48.9744 191.083 48.9347C190.782 48.8949 190.506 48.875 190.256 48.875C189.722 48.875 189.245 48.9915 188.825 49.2244C188.41 49.4517 188.08 49.7699 187.836 50.179C187.597 50.5881 187.478 51.0597 187.478 51.5938V59H183.847ZM199.024 59.2557C197.678 59.2557 196.518 58.983 195.547 58.4375C194.581 57.8864 193.837 57.108 193.314 56.1023C192.791 55.0909 192.53 53.8949 192.53 52.5142C192.53 51.1676 192.791 49.9858 193.314 48.9688C193.837 47.9517 194.572 47.1591 195.521 46.5909C196.476 46.0227 197.595 45.7386 198.879 45.7386C199.743 45.7386 200.547 45.8778 201.291 46.1562C202.041 46.429 202.695 46.8409 203.251 47.392C203.814 47.9432 204.251 48.6364 204.564 49.4716C204.876 50.3011 205.033 51.2727 205.033 52.3864V53.3835H193.979V51.1335H201.615C201.615 50.6108 201.501 50.1477 201.274 49.7443C201.047 49.3409 200.732 49.0256 200.328 48.7983C199.93 48.5653 199.467 48.4489 198.939 48.4489C198.388 48.4489 197.899 48.5767 197.473 48.8324C197.053 49.0824 196.723 49.4205 196.484 49.8466C196.246 50.267 196.124 50.7358 196.118 51.2528V53.392C196.118 54.0398 196.237 54.5994 196.476 55.071C196.72 55.5426 197.064 55.9062 197.507 56.1619C197.95 56.4176 198.476 56.5455 199.084 56.5455C199.487 56.5455 199.857 56.4886 200.192 56.375C200.527 56.2614 200.814 56.0909 201.053 55.8636C201.291 55.6364 201.473 55.358 201.598 55.0284L204.956 55.25C204.786 56.0568 204.436 56.7614 203.908 57.3636C203.385 57.9602 202.709 58.4261 201.879 58.7614C201.055 59.0909 200.104 59.2557 199.024 59.2557Z" fill="white"/>
</svg>
